# xmcd
#
# Track frame offsets: 
#        150
#        4942
#        24464
#        48201
#        62997
#        80342
#        98554
#        152254
#        166089
#        180472
#        198082
#        216472
#        231992
#        253742
#        272187
#        289368
#
# Disc length: 4671 seconds
#
# Revision: 0
# Processed by: cddbd v1.4PL0 Copyright (c) Steve Scherf et al.
# Submitted via: ExactAudioCopy v0.90b4
#
DISCID=d5123d10
DTITLE=Van Morrison - GAMH 1984 dec 18 late show
DYEAR=1984
DGENRE=Celtic
TTITLE0=Into The Mystic > Inarticulate Speech Of The Heart # 2
TTITLE1=Dweller On The Threshold
TTITLE2=It's All In The Game > You Know What They're Writing About
TTITLE3=Northern Muse (Solid Ground)
TTITLE4=Vanlose Stairway
TTITLE5=Cleaning Windows
TTITLE6=Help Me > Night Shirt
TTITLE7=If You Only Knew
TTITLE8=Higher Than The World
TTITLE9=Beautiful Vision
TTITLE10=The Master's Eyes
TTITLE11=Bright Side Of The Road
TTITLE12=What Would I Do
TTITLE13=She Gives Me Religion
TTITLE14=The Street Only Knew Your Name
TTITLE15=Summertime In England
EXTD=
EXTT0=
EXTT1=
EXTT2=
EXTT3=
EXTT4=
EXTT5=
EXTT6=
EXTT7=
EXTT8=
EXTT9=
EXTT10=
EXTT11=
EXTT12=
EXTT13=
EXTT14=
EXTT15=
PLAYORDER=
